<?xml version="1.0" encoding="utf-8"?>
<!-- Svg Vector Icons : http://www.onlinewebfonts.com/icon -->
<!DOCTYPE svg PUBLIC "-//W3C//DTD SVG 1.1//EN" "http://www.w3.org/Graphics/SVG/1.1/DTD/svg11.dtd">
<svg version="1.1" xmlns="http://www.w3.org/2000/svg" xmlns:xlink="http://www.w3.org/1999/xlink" x="0px" y="0px" viewBox="0 0 1000 1000" enable-background="new 0 0 1000 1000" xml:space="preserve">
<metadata> Svg Vector Icons : http://www.onlinewebfonts.com/icon </metadata>
<g><path d="M500,275.4c-125.7,0-224.6,98.8-224.6,224.6c0,125.7,98.8,224.5,224.6,224.5c125.8,0,224.6-98.9,224.6-224.5C724.6,374.2,625.8,275.4,500,275.4z"/><path d="M500,10C230.5,10,10,230.5,10,500c0,269.5,220.5,490,490,490c269.5,0,490-220.5,490-490C990,230.5,769.5,10,500,10z M500,949.2C252.9,949.2,50.8,747,50.8,500C50.8,253,252.9,50.8,500,50.8S949.2,253,949.2,500C949.2,747,747.1,949.2,500,949.2z"/></g>
</svg>